<svg width="50" height="50" viewBox="0 0 50 50" fill="none" xmlns="http://www.w3.org/2000/svg">
<path d="M0 25C0 11.1929 11.1929 0 25 0C30.1114 0 34.8644 1.53397 38.8242 4.16667H25V6.94444H42.2917C43.6025 8.20014 44.7767 9.59719 45.7903 11.1111H25V13.8889H47.4014C48.0606 15.2152 48.6053 16.6084 49.0228 18.0556H25V20.8333H49.6544C49.8817 22.1883 50 23.5803 50 25H25V27.7778H49.8475C49.6894 29.2064 49.4111 30.5986 49.0228 31.9444H25V34.7222H48.0392C47.42 36.1878 46.665 37.5819 45.7903 38.8889H25V41.6667H43.6342C39.0567 46.7811 32.4042 50 25 50C11.1929 50 0 38.8072 0 25Z" fill="white"/>
</svg>
